<?xml version="1.0" encoding="UTF-8"?>
<svg width="231px" height="39px" viewBox="0 0 231 39" version="1.1" xmlns="http://www.w3.org/2000/svg" xmlns:xlink="http://www.w3.org/1999/xlink">
    <!-- Generator: Sketch 50.2 (55047) - http://www.bohemiancoding.com/sketch -->
    <title>KALIX</title>
    <desc>Created with Sketch.</desc>
    <defs></defs>
    <g id="Page-1" stroke="none" stroke-width="1" fill="none" fill-rule="evenodd">
        <path d="M0.2655,39 L0.2655,0.628 L12.0315,0.628 L12.0315,14.726 L17.5435,14.726 L32.3835,0.628 L48.3895,0.628 L27.6135,19.39 L50.8275,39 L34.1855,39 L17.2255,24.266 L12.0315,24.266 L12.0315,39 L0.2655,39 Z M51.4635,39 L72.2395,0.628 L87.5565,0.628 L108.6505,39 L95.5595,39 L91.9025,32.216 L68.0525,32.216 L64.6075,39 L51.4635,39 Z M79.8715,9.532 L72.4515,23.948 L87.5035,23.948 L79.8715,9.532 Z M112.8375,39 L112.8375,0.628 L124.6035,0.628 L124.6035,29.142 L151.0505,29.142 L151.0505,39 L112.8375,39 Z M156.6685,39 L156.6685,0.628 L168.4345,0.628 L168.4345,39 L156.6685,39 Z M173.4165,39 L192.2315,19.761 L174.7415,0.628 L189.9525,0.628 L201.8775,14.037 L213.8025,0.628 L229.0135,0.628 L211.5235,19.761 L230.3385,39 L214.5445,39 L201.8775,25.061 L189.2105,39 L173.4165,39 Z" id="KALIX" fill="#397B9D"></path>
    </g>
</svg>